<?xml version="1.0" standalone="no"?>
<!DOCTYPE svg PUBLIC "-//W3C//DTD SVG 20010904//EN"
 "http://www.w3.org/TR/2001/REC-SVG-20010904/DTD/svg10.dtd">
<svg version="1.0" xmlns="http://www.w3.org/2000/svg"
 width="308.000000pt" height="165.000000pt" viewBox="0 0 308.000000 165.000000"
 preserveAspectRatio="xMidYMid meet">

<g transform="translate(0.000000,165.000000) scale(0.100000,-0.100000)"
fill="#000000" stroke="none">
<path d="M456 1435 c-140 -39 -259 -134 -318 -253 l-33 -67 -3 -422 -3 -423
501 0 501 0 -3 423 -3 422 -32 68 c-57 119 -178 215 -319 251 -75 19 -219 20
-288 1z m189 -430 c9 -31 40 -142 69 -248 l52 -192 -39 -3 c-21 -2 -41 -1 -44
2 -3 3 -13 34 -23 68 l-17 63 -59 3 -59 3 -18 -71 -19 -70 -42 0 -43 0 64 238
c35 130 65 243 68 250 3 7 22 12 49 12 l45 0 16 -55z"/>
<path d="M567 868 c-22 -89 -23 -88 19 -88 36 0 36 1 30 33 -3 18 -12 53 -19
78 l-13 44 -17 -67z"/>
<path d="M1579 1146 c-59 -21 -107 -64 -136 -124 l-28 -57 -3 -277 c-4 -276
-4 -278 17 -278 20 0 21 4 21 175 l0 175 155 0 155 0 0 -175 c0 -168 1 -175
20 -175 20 0 20 7 20 345 0 334 -1 346 -20 365 -12 12 -32 25 -46 30 -35 14
-112 12 -155 -4z m159 -42 c21 -14 22 -22 22 -160 l0 -144 -156 0 -157 0 5 83
c3 69 9 92 32 131 40 68 103 106 176 106 34 0 64 -6 78 -16z"/>
<path d="M1957 1154 c-9 -9 -9 -173 0 -496 l6 -248 46 0 c63 0 171 24 217 48
137 70 150 245 24 330 -19 13 -47 26 -62 29 -37 7 -35 16 7 31 105 39 126 193
33 250 -56 35 -251 75 -271 56z m214 -65 c61 -27 83 -59 76 -111 -10 -77 -95
-128 -209 -128 l-48 0 0 136 0 137 67 -7 c36 -4 88 -16 114 -27z m7 -315 c85
-28 136 -106 118 -179 -18 -72 -119 -132 -237 -142 l-69 -6 0 178 0 178 68 -6
c37 -3 91 -14 120 -23z"/>
<path d="M2460 785 c0 -327 2 -375 15 -375 13 0 15 45 15 343 1 396 -11 385
110 104 61 -140 76 -167 92 -165 14 2 41 53 106 203 l87 200 3 -342 c2 -296 4
-343 17 -343 13 0 15 50 15 375 l0 375 -23 0 c-21 0 -33 -23 -112 -205 -49
-113 -91 -205 -94 -205 -4 0 -47 92 -96 205 -79 182 -91 205 -112 205 l-23 0
0 -375z"/>
</g>
</svg>
